<?xml version="1.0" encoding="utf-8"?>
<svg viewBox="0 0 500 500" xmlns="http://www.w3.org/2000/svg">
  <path d="M 202.976 441.097 C 101.805 441.097 19.789 359.081 19.789 257.91 C 19.789 156.739 101.805 74.723 202.976 74.723 C 247.402 74.723 288.134 90.537 319.85 116.844 L 304.6 116.844 C 275.939 95.827 240.573 83.415 202.308 83.415 C 106.675 83.415 29.15 160.94 29.15 256.573 C 29.15 352.206 106.675 429.731 202.308 429.731 C 240.164 429.731 275.183 417.583 303.679 396.973 L 322.224 396.973 C 290.179 424.478 248.518 441.097 202.976 441.097 Z" style="fill: rgb(122, 39, 193); stroke: rgb(122, 39, 193);"/>
  <path style="fill: rgb(122, 39, 193); stroke: rgb(122, 39, 193);" d="M 440.986 144.924 L 468.398 364.213 L 418.255 364.213 L 416.249 315.408 L 359.421 316.745 L 343.376 364.882 L 293.233 364.882 L 382.153 144.255 Z M 405.552 179.02 L 370.787 280.642 L 412.907 280.642 Z"/>
  <path style="fill: rgb(122, 39, 193); stroke: rgb(122, 39, 193);" d="M 281.819 187.082 L 275.818 183.414 L 268.483 180.747 L 259.481 179.413 L 249.145 180.414 L 241.81 184.081 L 230.807 193.417 L 219.805 210.087 L 212.47 231.759 L 210.469 240.761 L 214.137 237.427 L 227.473 227.758 L 244.477 221.423 L 256.813 221.423 L 263.148 222.423 L 268.483 223.757 L 278.485 227.758 L 284.82 232.426 L 288.487 237.76 L 294.155 247.096 L 299.823 268.1 L 299.49 285.438 L 294.822 310.444 L 288.487 326.114 L 278.485 342.117 L 260.147 359.121 L 242.477 367.123 L 222.139 370.457 L 201.467 369.124 L 187.797 364.122 L 176.462 356.121 L 168.793 347.785 L 160.791 331.782 L 156.457 308.776 L 156.79 279.77 L 159.458 260.432 L 163.125 241.428 L 170.127 220.089 L 178.795 201.085 L 189.465 185.081 L 200.134 172.412 L 209.136 164.077 L 216.471 159.075 L 223.806 154.408 L 237.476 149.073 L 250.145 146.072 C 250.145 146.072 268.15 146.072 268.483 146.072 C 268.816 146.072 276.484 148.073 276.484 148.073 L 290.821 153.074 L 302.157 159.742 Z M 205.135 273.102 L 203.134 293.106 L 202.468 311.11 L 202.801 321.779 L 207.802 330.448 L 212.803 334.782 L 222.806 336.116 L 234.141 333.115 C 234.141 333.115 243.477 320.779 243.477 321.446 C 243.477 322.113 250.812 302.775 250.812 302.775 L 253.479 285.438 L 253.813 269.434 C 253.813 269.434 251.812 262.432 251.479 262.099 C 251.146 261.766 247.144 256.098 247.144 256.098 L 240.81 254.097 C 240.81 254.097 234.475 253.764 234.141 253.764 C 233.807 253.764 226.14 256.098 225.806 256.098 C 225.472 256.098 219.138 260.099 219.138 260.099 L 210.803 267.1 C 210.803 267.1 205.135 271.435 205.135 273.102 Z"/>
</svg>